<svg xmlns="http://www.w3.org/2000/svg" xmlns:xlink="http://www.w3.org/1999/xlink" width="1080" zoomAndPan="magnify" viewBox="0 0 810 525.000007" height="700" preserveAspectRatio="xMidYMid meet" version="1.2"><defs><clipPath id="296a626045"><path d="M 92 26.976562 L 719 26.976562 L 719 279 L 92 279 Z M 92 26.976562 "/></clipPath><clipPath id="869323900e"><path d="M 749 319 L 789.960938 319 L 789.960938 390 L 749 390 Z M 749 319 "/></clipPath></defs><g id="5fc6f16205"><g style="fill:#ffffff;fill-opacity:1;"><g transform="translate(88.811411, 489.193617)"><path style="stroke:none" d="M 29 0 L 5.203125 0 L 5.203125 -41.328125 L 29 -41.328125 L 29 -34.140625 L 13.96875 -34.140625 L 13.96875 -25.078125 L 27.953125 -25.078125 L 27.953125 -17.890625 L 13.96875 -17.890625 L 13.96875 -7.234375 L 29 -7.234375 Z M 29 0 "/></g></g><g style="fill:#ffffff;fill-opacity:1;"><g transform="translate(121.230876, 489.193617)"><path style="stroke:none" d="M 29.59375 -11.46875 C 29.59375 -7.738281 28.25 -4.800781 25.5625 -2.65625 C 22.882812 -0.507812 19.148438 0.5625 14.359375 0.5625 C 9.953125 0.5625 6.050781 -0.265625 2.65625 -1.921875 L 2.65625 -10.0625 C 5.445312 -8.820312 7.804688 -7.945312 9.734375 -7.4375 C 11.671875 -6.925781 13.4375 -6.671875 15.03125 -6.671875 C 16.957031 -6.671875 18.429688 -7.035156 19.453125 -7.765625 C 20.484375 -8.503906 21 -9.597656 21 -11.046875 C 21 -11.859375 20.769531 -12.578125 20.3125 -13.203125 C 19.863281 -13.835938 19.203125 -14.445312 18.328125 -15.03125 C 17.453125 -15.625 15.664062 -16.5625 12.96875 -17.84375 C 10.445312 -19.03125 8.554688 -20.164062 7.296875 -21.25 C 6.035156 -22.34375 5.023438 -23.613281 4.265625 -25.0625 C 3.515625 -26.519531 3.140625 -28.21875 3.140625 -30.15625 C 3.140625 -33.8125 4.378906 -36.6875 6.859375 -38.78125 C 9.335938 -40.875 12.757812 -41.921875 17.125 -41.921875 C 19.28125 -41.921875 21.332031 -41.664062 23.28125 -41.15625 C 25.226562 -40.644531 27.265625 -39.929688 29.390625 -39.015625 L 26.578125 -32.203125 C 24.367188 -33.097656 22.539062 -33.722656 21.09375 -34.078125 C 19.65625 -34.441406 18.238281 -34.625 16.84375 -34.625 C 15.1875 -34.625 13.914062 -34.238281 13.03125 -33.46875 C 12.144531 -32.695312 11.703125 -31.6875 11.703125 -30.4375 C 11.703125 -29.664062 11.878906 -28.992188 12.234375 -28.421875 C 12.597656 -27.847656 13.171875 -27.289062 13.953125 -26.75 C 14.734375 -26.21875 16.582031 -25.253906 19.5 -23.859375 C 23.363281 -22.015625 26.007812 -20.160156 27.4375 -18.296875 C 28.875 -16.441406 29.59375 -14.164062 29.59375 -11.46875 Z M 29.59375 -11.46875 "/></g></g><g style="fill:#ffffff;fill-opacity:1;"><g transform="translate(153.113307, 489.193617)"><path style="stroke:none" d="M 22.75 -34.625 C 19.457031 -34.625 16.90625 -33.382812 15.09375 -30.90625 C 13.28125 -28.425781 12.375 -24.972656 12.375 -20.546875 C 12.375 -11.335938 15.832031 -6.734375 22.75 -6.734375 C 25.65625 -6.734375 29.171875 -7.457031 33.296875 -8.90625 L 33.296875 -1.546875 C 29.898438 -0.140625 26.113281 0.5625 21.9375 0.5625 C 15.925781 0.5625 11.328125 -1.257812 8.140625 -4.90625 C 4.953125 -8.550781 3.359375 -13.785156 3.359375 -20.609375 C 3.359375 -24.898438 4.140625 -28.660156 5.703125 -31.890625 C 7.273438 -35.128906 9.523438 -37.609375 12.453125 -39.328125 C 15.378906 -41.054688 18.8125 -41.921875 22.75 -41.921875 C 26.769531 -41.921875 30.804688 -40.953125 34.859375 -39.015625 L 32.03125 -31.890625 C 30.476562 -32.617188 28.921875 -33.253906 27.359375 -33.796875 C 25.796875 -34.347656 24.257812 -34.625 22.75 -34.625 Z M 22.75 -34.625 "/></g></g><g style="fill:#ffffff;fill-opacity:1;"><g transform="translate(189.43327, 489.193617)"><path style="stroke:none" d="M 42.71875 -20.71875 C 42.71875 -13.875 41.019531 -8.613281 37.625 -4.9375 C 34.226562 -1.269531 29.363281 0.5625 23.03125 0.5625 C 16.707031 0.5625 11.847656 -1.269531 8.453125 -4.9375 C 5.054688 -8.613281 3.359375 -13.894531 3.359375 -20.78125 C 3.359375 -27.65625 5.054688 -32.90625 8.453125 -36.53125 C 11.859375 -40.15625 16.738281 -41.96875 23.09375 -41.96875 C 29.445312 -41.96875 34.304688 -40.140625 37.671875 -36.484375 C 41.035156 -32.835938 42.71875 -27.582031 42.71875 -20.71875 Z M 12.546875 -20.71875 C 12.546875 -16.101562 13.421875 -12.625 15.171875 -10.28125 C 16.929688 -7.945312 19.550781 -6.78125 23.03125 -6.78125 C 30.03125 -6.78125 33.53125 -11.425781 33.53125 -20.71875 C 33.53125 -30.03125 30.050781 -34.6875 23.09375 -34.6875 C 19.601562 -34.6875 16.972656 -33.507812 15.203125 -31.15625 C 13.429688 -28.8125 12.546875 -25.332031 12.546875 -20.71875 Z M 12.546875 -20.71875 "/></g></g><g style="fill:#ffffff;fill-opacity:1;"><g transform="translate(235.504515, 489.193617)"><path style="stroke:none" d="M 5.203125 0 L 5.203125 -41.328125 L 13.96875 -41.328125 L 13.96875 -7.234375 L 30.71875 -7.234375 L 30.71875 0 Z M 5.203125 0 "/></g></g><g style="fill:#ffffff;fill-opacity:1;"><g transform="translate(268.206624, 489.193617)"><path style="stroke:none" d="M 30.5 0 L 27.5 -9.84375 L 12.4375 -9.84375 L 9.4375 0 L 0 0 L 14.578125 -41.5 L 25.296875 -41.5 L 39.9375 0 Z M 25.40625 -17.1875 C 22.632812 -26.101562 21.070312 -31.144531 20.71875 -32.3125 C 20.375 -33.476562 20.128906 -34.398438 19.984375 -35.078125 C 19.359375 -32.671875 17.578125 -26.707031 14.640625 -17.1875 Z M 25.40625 -17.1875 "/></g></g><g style="fill:#ffffff;fill-opacity:1;"><g transform="translate(308.144452, 489.193617)"><path style="stroke:none" d=""/></g></g><g style="fill:#ffffff;fill-opacity:1;"><g transform="translate(323.181224, 489.193617)"><path style="stroke:none" d="M 39.484375 -21.0625 C 39.484375 -14.257812 37.546875 -9.046875 33.671875 -5.421875 C 29.804688 -1.804688 24.21875 0 16.90625 0 L 5.203125 0 L 5.203125 -41.328125 L 18.171875 -41.328125 C 24.921875 -41.328125 30.160156 -39.546875 33.890625 -35.984375 C 37.617188 -32.421875 39.484375 -27.445312 39.484375 -21.0625 Z M 30.390625 -20.828125 C 30.390625 -29.703125 26.46875 -34.140625 18.625 -34.140625 L 13.96875 -34.140625 L 13.96875 -7.234375 L 17.71875 -7.234375 C 26.164062 -7.234375 30.390625 -11.765625 30.390625 -20.828125 Z M 30.390625 -20.828125 "/></g></g><g style="fill:#ffffff;fill-opacity:1;"><g transform="translate(366.030286, 489.193617)"><path style="stroke:none" d="M 29 0 L 5.203125 0 L 5.203125 -41.328125 L 29 -41.328125 L 29 -34.140625 L 13.96875 -34.140625 L 13.96875 -25.078125 L 27.953125 -25.078125 L 27.953125 -17.890625 L 13.96875 -17.890625 L 13.96875 -7.234375 L 29 -7.234375 Z M 29 0 "/></g></g><g style="fill:#ffffff;fill-opacity:1;"><g transform="translate(398.44975, 489.193617)"><path style="stroke:none" d=""/></g></g><g style="fill:#ffffff;fill-opacity:1;"><g transform="translate(413.486522, 489.193617)"><path style="stroke:none" d="M 13.828125 0 L 5.203125 0 L 5.203125 -41.328125 L 28.890625 -41.328125 L 28.890625 -34.140625 L 13.828125 -34.140625 L 13.828125 -23.484375 L 27.84375 -23.484375 L 27.84375 -16.34375 L 13.828125 -16.34375 Z M 13.828125 0 "/></g></g><g style="fill:#ffffff;fill-opacity:1;"><g transform="translate(445.255873, 489.193617)"><path style="stroke:none" d="M 20.65625 0 L 1.859375 0 L 1.859375 -4.96875 L 6.890625 -7.296875 L 6.890625 -34.03125 L 1.859375 -36.34375 L 1.859375 -41.328125 L 20.65625 -41.328125 L 20.65625 -36.34375 L 15.625 -34.03125 L 15.625 -7.296875 L 20.65625 -4.96875 Z M 20.65625 0 "/></g></g><g style="fill:#ffffff;fill-opacity:1;"><g transform="translate(467.78275, 489.193617)"><path style="stroke:none" d="M 5.203125 0 L 5.203125 -41.328125 L 13.96875 -41.328125 L 13.96875 -7.234375 L 30.71875 -7.234375 L 30.71875 0 Z M 5.203125 0 "/></g></g><g style="fill:#ffffff;fill-opacity:1;"><g transform="translate(499.919557, 489.193617)"><path style="stroke:none" d="M 42.71875 -20.71875 C 42.71875 -13.875 41.019531 -8.613281 37.625 -4.9375 C 34.226562 -1.269531 29.363281 0.5625 23.03125 0.5625 C 16.707031 0.5625 11.847656 -1.269531 8.453125 -4.9375 C 5.054688 -8.613281 3.359375 -13.894531 3.359375 -20.78125 C 3.359375 -27.65625 5.054688 -32.90625 8.453125 -36.53125 C 11.859375 -40.15625 16.738281 -41.96875 23.09375 -41.96875 C 29.445312 -41.96875 34.304688 -40.140625 37.671875 -36.484375 C 41.035156 -32.835938 42.71875 -27.582031 42.71875 -20.71875 Z M 12.546875 -20.71875 C 12.546875 -16.101562 13.421875 -12.625 15.171875 -10.28125 C 16.929688 -7.945312 19.550781 -6.78125 23.03125 -6.78125 C 30.03125 -6.78125 33.53125 -11.425781 33.53125 -20.71875 C 33.53125 -30.03125 30.050781 -34.6875 23.09375 -34.6875 C 19.601562 -34.6875 16.972656 -33.507812 15.203125 -31.15625 C 13.429688 -28.8125 12.546875 -25.332031 12.546875 -20.71875 Z M 12.546875 -20.71875 "/></g></g><g style="fill:#ffffff;fill-opacity:1;"><g transform="translate(545.990813, 489.193617)"><path style="stroke:none" d="M 29.59375 -11.46875 C 29.59375 -7.738281 28.25 -4.800781 25.5625 -2.65625 C 22.882812 -0.507812 19.148438 0.5625 14.359375 0.5625 C 9.953125 0.5625 6.050781 -0.265625 2.65625 -1.921875 L 2.65625 -10.0625 C 5.445312 -8.820312 7.804688 -7.945312 9.734375 -7.4375 C 11.671875 -6.925781 13.4375 -6.671875 15.03125 -6.671875 C 16.957031 -6.671875 18.429688 -7.035156 19.453125 -7.765625 C 20.484375 -8.503906 21 -9.597656 21 -11.046875 C 21 -11.859375 20.769531 -12.578125 20.3125 -13.203125 C 19.863281 -13.835938 19.203125 -14.445312 18.328125 -15.03125 C 17.453125 -15.625 15.664062 -16.5625 12.96875 -17.84375 C 10.445312 -19.03125 8.554688 -20.164062 7.296875 -21.25 C 6.035156 -22.34375 5.023438 -23.613281 4.265625 -25.0625 C 3.515625 -26.519531 3.140625 -28.21875 3.140625 -30.15625 C 3.140625 -33.8125 4.378906 -36.6875 6.859375 -38.78125 C 9.335938 -40.875 12.757812 -41.921875 17.125 -41.921875 C 19.28125 -41.921875 21.332031 -41.664062 23.28125 -41.15625 C 25.226562 -40.644531 27.265625 -39.929688 29.390625 -39.015625 L 26.578125 -32.203125 C 24.367188 -33.097656 22.539062 -33.722656 21.09375 -34.078125 C 19.65625 -34.441406 18.238281 -34.625 16.84375 -34.625 C 15.1875 -34.625 13.914062 -34.238281 13.03125 -33.46875 C 12.144531 -32.695312 11.703125 -31.6875 11.703125 -30.4375 C 11.703125 -29.664062 11.878906 -28.992188 12.234375 -28.421875 C 12.597656 -27.847656 13.171875 -27.289062 13.953125 -26.75 C 14.734375 -26.21875 16.582031 -25.253906 19.5 -23.859375 C 23.363281 -22.015625 26.007812 -20.160156 27.4375 -18.296875 C 28.875 -16.441406 29.59375 -14.164062 29.59375 -11.46875 Z M 29.59375 -11.46875 "/></g></g><g style="fill:#ffffff;fill-opacity:1;"><g transform="translate(577.873244, 489.193617)"><path style="stroke:none" d="M 42.71875 -20.71875 C 42.71875 -13.875 41.019531 -8.613281 37.625 -4.9375 C 34.226562 -1.269531 29.363281 0.5625 23.03125 0.5625 C 16.707031 0.5625 11.847656 -1.269531 8.453125 -4.9375 C 5.054688 -8.613281 3.359375 -13.894531 3.359375 -20.78125 C 3.359375 -27.65625 5.054688 -32.90625 8.453125 -36.53125 C 11.859375 -40.15625 16.738281 -41.96875 23.09375 -41.96875 C 29.445312 -41.96875 34.304688 -40.140625 37.671875 -36.484375 C 41.035156 -32.835938 42.71875 -27.582031 42.71875 -20.71875 Z M 12.546875 -20.71875 C 12.546875 -16.101562 13.421875 -12.625 15.171875 -10.28125 C 16.929688 -7.945312 19.550781 -6.78125 23.03125 -6.78125 C 30.03125 -6.78125 33.53125 -11.425781 33.53125 -20.71875 C 33.53125 -30.03125 30.050781 -34.6875 23.09375 -34.6875 C 19.601562 -34.6875 16.972656 -33.507812 15.203125 -31.15625 C 13.429688 -28.8125 12.546875 -25.332031 12.546875 -20.71875 Z M 12.546875 -20.71875 "/></g></g><g style="fill:#ffffff;fill-opacity:1;"><g transform="translate(623.9445, 489.193617)"><path style="stroke:none" d="M 13.828125 0 L 5.203125 0 L 5.203125 -41.328125 L 28.890625 -41.328125 L 28.890625 -34.140625 L 13.828125 -34.140625 L 13.828125 -23.484375 L 27.84375 -23.484375 L 27.84375 -16.34375 L 13.828125 -16.34375 Z M 13.828125 0 "/></g></g><g style="fill:#ffffff;fill-opacity:1;"><g transform="translate(655.71385, 489.193617)"><path style="stroke:none" d="M 20.65625 0 L 1.859375 0 L 1.859375 -4.96875 L 6.890625 -7.296875 L 6.890625 -34.03125 L 1.859375 -36.34375 L 1.859375 -41.328125 L 20.65625 -41.328125 L 20.65625 -36.34375 L 15.625 -34.03125 L 15.625 -7.296875 L 20.65625 -4.96875 Z M 20.65625 0 "/></g></g><g style="fill:#ffffff;fill-opacity:1;"><g transform="translate(678.240705, 489.193617)"><path style="stroke:none" d="M 30.5 0 L 27.5 -9.84375 L 12.4375 -9.84375 L 9.4375 0 L 0 0 L 14.578125 -41.5 L 25.296875 -41.5 L 39.9375 0 Z M 25.40625 -17.1875 C 22.632812 -26.101562 21.070312 -31.144531 20.71875 -32.3125 C 20.375 -33.476562 20.128906 -34.398438 19.984375 -35.078125 C 19.359375 -32.671875 17.578125 -26.707031 14.640625 -17.1875 Z M 25.40625 -17.1875 "/></g></g><g clip-rule="nonzero" clip-path="url(#296a626045)"><path style=" stroke:none;fill-rule:nonzero;fill:#ffffff;fill-opacity:1;" d="M 216.320312 278.390625 L 92.03125 278.390625 C 100.570312 278.082031 109.417969 275.785156 118.601562 271.515625 C 127.773438 267.246094 135.75 260.527344 142.554688 251.355469 C 149.351562 242.183594 153.226562 230.648438 154.175781 216.722656 C 154.808594 230.640625 158.523438 242.101562 165.320312 251.117188 C 172.117188 260.132812 180.179688 266.847656 189.511719 271.277344 C 198.835938 275.707031 207.78125 278.082031 216.320312 278.390625 M 505.683594 278.390625 L 315.9375 278.390625 C 288.734375 278.390625 269.128906 266.375 257.113281 242.339844 C 246.355469 222.101562 230.863281 191.105469 210.621094 149.359375 C 197.023438 120.582031 183.738281 93.703125 170.777344 68.710938 C 166.035156 59.546875 161.445312 52.425781 157.019531 47.363281 C 152.589844 42.308594 145.636719 37.566406 136.144531 33.128906 L 129.035156 30.761719 L 118.125 26.964844 L 181.21875 26.964844 C 192.601562 27.28125 203.519531 31.078125 213.949219 38.347656 C 224.390625 45.628906 232.445312 55.121094 238.140625 66.808594 L 278.9375 147.449219 L 320.207031 229.039062 C 328.429688 245.808594 337.445312 257.824219 347.25 265.089844 C 357.691406 272.050781 369.222656 275.527344 381.882812 275.527344 C 393.265625 275.527344 403.707031 272.765625 413.195312 267.226562 C 422.6875 261.699219 430.109375 254.496094 435.488281 245.640625 C 440.855469 236.792969 443.550781 227.304688 443.550781 217.179688 C 443.550781 227.304688 446.789062 237.03125 453.277344 246.355469 C 459.757812 255.6875 467.820312 263.273438 477.46875 269.121094 C 487.109375 274.972656 496.519531 278.066406 505.695312 278.371094 M 134.253906 271.277344 L 174.097656 271.277344 C 169.351562 268.75 165.003906 264.242188 161.050781 257.753906 C 157.089844 251.277344 154.960938 246.925781 154.652344 244.707031 C 153.066406 248.820312 150.214844 253.722656 146.113281 259.417969 C 142 265.113281 138.046875 269.066406 134.253906 271.277344 M 322.109375 270.328125 L 340.136719 270.328125 C 332.550781 264.957031 324.484375 255.464844 315.945312 241.863281 L 284.640625 180.199219 C 259.972656 132.132812 241.785156 95.753906 230.085938 71.089844 C 225.023438 60.339844 217.199219 51.640625 206.609375 44.996094 C 196.007812 38.359375 185.023438 35.03125 173.640625 35.03125 L 155.609375 35.03125 C 165.410156 43.261719 172.6875 52.109375 177.433594 61.597656 L 267.085938 240.4375 C 272.140625 249.613281 279.253906 256.882812 288.4375 262.261719 C 297.601562 267.640625 308.832031 270.328125 322.117188 270.328125 M 530.359375 66.351562 L 611.007812 230.957031 C 619.230469 247.085938 627.917969 258.636719 637.101562 265.589844 C 646.265625 272.554688 657.5 276.824219 670.785156 278.398438 L 606.738281 278.398438 C 579.851562 278.398438 560.089844 266.382812 547.441406 242.347656 L 518.976562 184.953125 L 441.183594 184.953125 L 441.183594 174.042969 L 514.234375 174.042969 L 461.105469 71.582031 C 452.875 57.347656 444.183594 46.914062 435.011719 40.269531 C 425.839844 33.628906 414.765625 30.3125 401.804688 30.3125 C 383.777344 30.3125 369.234375 35.691406 358.160156 46.4375 C 347.082031 57.195312 340.761719 71.898438 339.1875 90.554688 C 337.601562 72.214844 331.429688 57.585938 320.683594 46.667969 C 309.925781 35.761719 295.382812 29.195312 277.042969 26.984375 L 471.0625 26.984375 C 482.761719 26.984375 494.066406 30.628906 504.980469 37.898438 C 515.886719 45.179688 524.347656 54.660156 530.359375 66.359375 M 358.632812 34.089844 L 317.839844 34.089844 C 321.941406 36.933594 326.140625 41.203125 330.410156 46.898438 C 334.679688 52.59375 337.601562 58.128906 339.1875 63.5 C 340.761719 58.445312 343.457031 52.988281 347.25 47.132812 C 351.046875 41.289062 354.839844 36.933594 358.632812 34.089844 M 570.203125 57.8125 L 571.15625 58.765625 C 574.949219 63.507812 580.796875 65.878906 588.710938 65.878906 C 595.980469 65.878906 601.121094 63.824219 604.125 59.707031 C 607.125 55.605469 608.941406 51.640625 609.582031 47.847656 L 610.058594 46.898438 C 610.691406 46.898438 610.605469 49.117188 609.820312 53.535156 C 609.027344 57.972656 606.976562 62.003906 603.65625 65.628906 C 600.339844 69.265625 595.355469 71.089844 588.710938 71.089844 C 584.914062 71.089844 581.597656 70.136719 578.753906 68.246094 C 575.910156 66.34375 573.691406 64.214844 572.117188 61.835938 C 570.53125 59.46875 569.898438 58.121094 570.214844 57.804688 M 717.265625 41.210938 C 716.949219 41.210938 716.472656 40.734375 715.839844 39.785156 C 713.945312 37.574219 711.726562 35.753906 709.203125 34.324219 C 706.664062 32.898438 702.714844 32.035156 697.34375 31.71875 C 693.855469 31.71875 688.011719 32.988281 679.789062 35.515625 C 663.96875 39.625 651.960938 41.683594 643.738281 41.683594 C 635.515625 41.683594 623.34375 39.476562 607.214844 35.046875 C 598.984375 32.839844 593.453125 31.730469 590.609375 31.730469 C 581.121094 31.730469 574.792969 34.738281 571.632812 40.742188 L 570.679688 41.695312 C 570.046875 41.695312 570.363281 40.355469 571.632812 37.664062 C 572.890625 34.976562 575.109375 32.519531 578.269531 30.3125 C 581.429688 28.101562 585.699219 26.992188 591.078125 26.992188 C 595.507812 26.992188 603.71875 28.261719 615.746094 30.785156 C 620.488281 31.738281 625.382812 32.6875 630.445312 33.628906 C 635.5 34.582031 639.9375 35.054688 643.730469 35.054688 C 647.523438 35.054688 652.101562 34.582031 657.492188 33.628906 C 662.859375 32.679688 668.082031 31.730469 673.144531 30.785156 C 685.160156 28.261719 693.222656 26.992188 697.335938 26.992188 C 702.386719 26.992188 706.585938 28.023438 709.90625 30.074219 C 713.222656 32.132812 715.511719 34.5 716.78125 37.1875 C 718.039062 39.878906 718.207031 41.21875 717.257812 41.21875 M 596.296875 46.421875 C 596.296875 48.640625 595.742188 50.296875 594.632812 51.40625 C 593.523438 52.511719 592.027344 53.066406 590.125 53.066406 C 587.285156 53.066406 585.855469 51.808594 585.855469 49.273438 C 585.855469 47.0625 586.957031 45.957031 589.175781 45.957031 C 591.394531 45.957031 592.496094 47.222656 592.496094 49.75 C 593.445312 49.117188 593.921875 48.015625 593.921875 46.429688 C 593.921875 45.171875 593.445312 44.140625 592.496094 43.347656 C 591.542969 42.566406 590.277344 42.160156 588.699219 42.160156 C 586.480469 42.160156 584.75 42.875 583.480469 44.292969 C 582.210938 45.71875 581.578125 47.371094 581.578125 49.273438 C 581.578125 52.441406 583.003906 54.96875 585.847656 56.863281 L 586.324219 57.335938 C 586.007812 57.65625 585.214844 57.574219 583.957031 57.101562 C 582.6875 56.625 581.5 55.761719 580.398438 54.496094 C 579.289062 53.234375 578.734375 51.332031 578.734375 48.796875 C 578.734375 45.957031 579.6875 43.578125 581.578125 41.683594 C 583.480469 39.785156 585.847656 38.84375 588.691406 38.84375 C 590.902344 38.84375 592.722656 39.554688 594.148438 40.980469 C 595.578125 42.40625 596.28125 44.230469 596.28125 46.4375 M 681.683594 177.828125 L 676.460938 166.921875 L 676.460938 90.070312 L 668.398438 92.445312 L 668.398438 148.894531 C 668.082031 145.097656 664.910156 139.09375 658.90625 130.863281 L 656.539062 127.542969 L 656.539062 90.070312 L 649.425781 92.445312 L 649.425781 116.636719 C 649.109375 114.425781 646.582031 111.890625 641.839844 109.046875 C 641.203125 108.742188 640.570312 108.335938 639.945312 107.859375 C 639.300781 107.386719 638.675781 106.988281 638.042969 106.671875 L 638.042969 90.070312 L 630.457031 92.445312 L 630.457031 101.9375 C 625.078125 100.035156 621.28125 98.933594 619.074219 98.617188 L 619.074219 90.078125 L 611.960938 92.453125 L 611.960938 96.25 L 605.320312 96.25 L 605.320312 82.964844 L 673.625 82.964844 L 673.625 81.539062 C 673.625 79.960938 672.597656 78.851562 670.546875 78.21875 C 668.484375 77.585938 663.742188 77.199219 656.3125 77.03125 C 648.871094 76.871094 639.300781 76.792969 627.613281 76.792969 L 605.3125 76.792969 L 605.3125 71.097656 L 681.691406 71.097656 L 681.691406 177.828125 Z M 613.84375 60.179688 L 671.242188 60.179688 C 671.242188 61.132812 671.003906 62.398438 670.527344 63.976562 C 670.054688 65.558594 669.5 66.351562 668.863281 66.351562 L 616.6875 66.351562 C 616.042969 66.351562 615.417969 65.570312 614.785156 63.976562 C 614.152344 62.398438 613.835938 61.132812 613.835938 60.179688 M 699.710938 71.089844 C 693.074219 71.089844 688.089844 69.273438 684.773438 65.628906 C 681.453125 62.003906 679.394531 57.972656 678.601562 53.535156 C 677.808594 49.105469 677.730469 46.898438 678.363281 46.898438 L 678.839844 47.847656 C 679.472656 51.640625 681.285156 55.605469 684.296875 59.707031 C 687.296875 63.816406 692.429688 65.878906 699.710938 65.878906 C 707.609375 65.878906 713.472656 63.507812 717.265625 58.765625 L 718.214844 57.8125 C 718.523438 58.128906 717.898438 59.476562 716.3125 61.84375 C 714.730469 64.214844 712.519531 66.351562 709.675781 68.253906 C 706.832031 70.15625 703.515625 71.097656 699.710938 71.097656 M 707.300781 46.421875 C 707.300781 48.640625 706.65625 50.296875 705.398438 51.40625 C 704.128906 52.511719 702.554688 53.066406 700.652344 53.066406 C 697.808594 53.066406 696.382812 51.808594 696.382812 49.273438 C 696.382812 47.0625 697.640625 45.957031 700.179688 45.957031 C 702.386719 45.957031 703.496094 47.222656 703.496094 49.75 C 704.449219 49.117188 704.921875 48.015625 704.921875 46.429688 C 704.921875 45.171875 704.449219 44.140625 703.496094 43.347656 C 702.546875 42.566406 701.277344 42.160156 699.703125 42.160156 C 697.484375 42.160156 695.742188 42.875 694.480469 44.292969 C 693.214844 45.71875 692.582031 47.371094 692.582031 49.273438 C 692.582031 52.441406 694.007812 54.96875 696.851562 56.863281 L 697.324219 57.335938 C 696.691406 57.65625 695.742188 57.574219 694.480469 57.101562 C 693.214844 56.625 692.027344 55.761719 690.925781 54.496094 C 689.816406 53.234375 689.261719 51.332031 689.261719 48.796875 C 689.261719 45.957031 690.210938 43.578125 692.105469 41.683594 C 694.007812 39.785156 696.535156 38.84375 699.695312 38.84375 C 701.902344 38.84375 703.726562 39.554688 705.152344 40.980469 C 706.578125 42.40625 707.28125 44.230469 707.28125 46.4375 "/></g><path style=" stroke:none;fill-rule:nonzero;fill:#ffffff;fill-opacity:1;" d="M 23.957031 321.253906 L 71.617188 371.160156 L 71.617188 326.421875 C 71.617188 325.058594 71.328125 324.019531 70.738281 323.304688 C 70.15625 322.59375 69.3125 322.230469 68.203125 322.230469 L 68.203125 322.039062 L 82.136719 322.039062 L 82.136719 322.230469 C 81.027344 322.230469 80.191406 322.59375 79.601562 323.304688 C 79.019531 324.019531 78.722656 325.058594 78.722656 326.421875 L 78.722656 389.1875 L 78.429688 389.1875 L 30.769531 339.476562 L 30.769531 384.023438 C 30.769531 385.386719 31.0625 386.425781 31.652344 387.136719 C 32.230469 387.851562 33.050781 388.210938 34.089844 388.210938 L 34.089844 388.40625 L 20.25 388.40625 L 20.25 388.210938 C 21.351562 388.210938 22.195312 387.851562 22.785156 387.136719 C 23.367188 386.425781 23.664062 385.386719 23.664062 384.023438 L 23.664062 321.253906 Z M 23.957031 321.253906 "/><path style=" stroke:none;fill-rule:nonzero;fill:#ffffff;fill-opacity:1;" d="M 140.769531 325.691406 C 145.671875 328.648438 149.527344 332.742188 152.316406 337.972656 C 155.109375 343.199219 156.507812 349.097656 156.507812 355.667969 C 156.507812 362.234375 155.109375 367.789062 152.316406 372.921875 C 149.527344 378.054688 145.671875 382.050781 140.769531 384.910156 C 135.863281 387.773438 130.320312 389.199219 124.148438 389.199219 C 117.976562 389.199219 112.15625 387.773438 107.085938 384.910156 C 102.015625 382.050781 98.070312 378.054688 95.246094 372.921875 C 92.421875 367.789062 91.003906 362.039062 91.003906 355.667969 C 91.003906 349.292969 92.421875 343.210938 95.246094 337.972656 C 98.070312 332.742188 102.023438 328.648438 107.085938 325.691406 C 112.15625 322.734375 117.84375 321.253906 124.148438 321.253906 C 130.449219 321.253906 135.855469 322.734375 140.769531 325.691406 Z M 136.824219 378.90625 C 140.59375 376.601562 143.550781 373.414062 145.699219 369.355469 C 147.847656 365.296875 148.910156 360.726562 148.910156 355.65625 C 148.910156 350.585938 147.835938 345.664062 145.699219 341.476562 C 143.550781 337.285156 140.59375 334 136.824219 331.632812 C 133.054688 329.265625 128.832031 328.078125 124.15625 328.078125 C 119.480469 328.078125 114.894531 329.265625 110.996094 331.632812 C 107.09375 334.011719 104.058594 337.285156 101.882812 341.476562 C 99.710938 345.664062 98.617188 350.394531 98.617188 355.65625 C 98.617188 360.921875 99.710938 365.289062 101.882812 369.355469 C 104.058594 373.414062 107.09375 376.601562 110.996094 378.90625 C 114.894531 381.214844 119.277344 382.367188 124.15625 382.367188 C 129.035156 382.367188 133.054688 381.214844 136.824219 378.90625 Z M 136.824219 378.90625 "/><path style=" stroke:none;fill-rule:nonzero;fill:#ffffff;fill-opacity:1;" d="M 191.996094 389.480469 L 163.050781 327.980469 C 162.722656 327.265625 162.320312 326.765625 161.835938 326.464844 C 161.351562 326.175781 160.742188 326.023438 160.03125 326.023438 C 159.640625 326.023438 159.089844 326.121094 158.375 326.316406 L 158.277344 326.023438 L 171.535156 320.664062 L 171.632812 320.859375 C 170.917969 321.183594 170.398438 321.554688 170.074219 321.976562 C 169.75 322.398438 169.589844 322.839844 169.589844 323.296875 C 169.589844 323.949219 169.820312 324.722656 170.269531 325.636719 L 195.324219 378.855469 L 189.671875 378.855469 L 215.402344 325.636719 C 215.730469 324.863281 215.886719 324.175781 215.886719 323.59375 C 215.886719 322.425781 215.304688 321.519531 214.136719 320.867188 L 214.230469 320.671875 L 226.996094 325.742188 L 226.898438 325.9375 C 226.320312 325.742188 225.695312 325.648438 225.050781 325.648438 C 223.820312 325.648438 222.878906 326.324219 222.226562 327.699219 L 192.207031 389.496094 L 192.011719 389.496094 Z M 191.996094 389.480469 "/><path style=" stroke:none;fill-rule:nonzero;fill:#ffffff;fill-opacity:1;" d="M 276.109375 387.878906 C 276.4375 387.527344 276.59375 387.085938 276.59375 386.558594 C 276.59375 385.976562 276.402344 385.324219 276.015625 384.613281 L 268.40625 368.914062 L 237.410156 368.914062 L 229.804688 384.613281 C 229.347656 385.652344 229.128906 386.398438 229.128906 386.855469 C 229.128906 387.3125 229.304688 387.703125 229.664062 388.027344 C 230.015625 388.351562 230.589844 388.679688 231.371094 389.003906 L 231.277344 389.199219 L 217.921875 385.105469 L 218.019531 384.910156 C 218.667969 385.042969 219.1875 385.105469 219.574219 385.105469 C 221.003906 385.105469 221.980469 384.585938 222.5 383.546875 L 253.300781 321.261719 L 253.496094 321.261719 L 283.320312 382.761719 C 283.839844 383.871094 284.648438 384.417969 285.757812 384.417969 C 286.339844 384.417969 286.992188 384.285156 287.703125 384.03125 L 287.800781 384.222656 L 274.542969 389.199219 L 274.445312 389.003906 C 275.230469 388.617188 275.777344 388.238281 276.101562 387.886719 Z M 265.097656 361.996094 L 253.203125 337.242188 L 240.828125 361.996094 Z M 265.097656 361.996094 "/><path style=" stroke:none;fill-rule:nonzero;fill:#ffffff;fill-opacity:1;" d="M 367.242188 387.878906 C 367.570312 387.527344 367.726562 387.085938 367.726562 386.558594 C 367.726562 385.976562 367.535156 385.324219 367.148438 384.613281 L 359.539062 368.914062 L 328.542969 368.914062 L 320.9375 384.613281 C 320.480469 385.652344 320.261719 386.398438 320.261719 386.855469 C 320.261719 387.3125 320.4375 387.703125 320.796875 388.027344 C 321.148438 388.351562 321.722656 388.679688 322.503906 389.003906 L 322.40625 389.199219 L 309.054688 385.105469 L 309.148438 384.910156 C 309.800781 385.042969 310.320312 385.105469 310.707031 385.105469 C 312.132812 385.105469 313.113281 384.585938 313.632812 383.546875 L 344.433594 321.261719 L 344.628906 321.261719 L 374.453125 382.761719 C 374.972656 383.871094 375.78125 384.417969 376.890625 384.417969 C 377.472656 384.417969 378.125 384.285156 378.835938 384.03125 L 378.933594 384.222656 L 365.675781 389.199219 L 365.578125 389.003906 C 366.363281 388.617188 366.910156 388.238281 367.234375 387.886719 Z M 356.230469 361.996094 L 344.335938 337.242188 L 331.960938 361.996094 Z M 356.230469 361.996094 "/><path style=" stroke:none;fill-rule:nonzero;fill:#ffffff;fill-opacity:1;" d="M 399.949219 331.246094 C 396.144531 333.359375 393.203125 336.457031 391.128906 340.550781 C 389.050781 344.644531 388.011719 349.519531 388.011719 355.171875 C 388.011719 360.824219 389.015625 365.507812 391.03125 369.601562 C 393.046875 373.695312 395.90625 376.847656 399.605469 379.058594 C 403.3125 381.265625 407.660156 382.367188 412.667969 382.367188 C 415.855469 382.367188 418.875 381.925781 421.734375 381.054688 C 424.597656 380.175781 426.902344 379.09375 428.65625 377.789062 C 430.40625 376.484375 431.289062 375.191406 431.289062 373.890625 C 431.289062 373.371094 431.171875 372.78125 430.945312 372.136719 C 430.714844 371.484375 430.441406 370.964844 430.117188 370.578125 L 430.40625 370.386719 L 440.347656 380.613281 L 440.152344 380.90625 C 439.828125 380.578125 439.519531 380.351562 439.226562 380.226562 C 438.9375 380.105469 438.558594 380.035156 438.109375 380.035156 C 437.398438 380.035156 436.808594 380.148438 436.359375 380.378906 C 435.910156 380.605469 435.125 381.144531 434.015625 381.988281 C 431.15625 384.199219 428.023438 385.949219 424.605469 387.253906 C 421.199219 388.554688 417.183594 389.207031 412.570312 389.207031 C 406.199219 389.207031 400.597656 387.808594 395.757812 385.015625 C 390.914062 382.226562 387.148438 378.253906 384.453125 373.125 C 381.761719 367.992188 380.40625 362.011719 380.40625 355.191406 C 380.40625 348.367188 381.707031 342.777344 384.304688 337.644531 C 386.902344 332.511719 390.652344 328.5 395.5625 325.613281 C 400.46875 322.722656 406.207031 321.273438 412.765625 321.273438 C 417.054688 321.273438 421.066406 321.90625 424.800781 323.171875 C 428.53125 324.441406 432.027344 326.308594 435.277344 328.78125 C 436.253906 329.5625 437.125 329.953125 437.90625 329.953125 C 438.621094 329.953125 439.371094 329.5625 440.152344 328.78125 L 440.347656 328.972656 L 430.214844 339.203125 L 429.921875 339.011719 C 430.382812 338.550781 430.707031 338.183594 430.902344 337.890625 C 431.09375 337.601562 431.191406 337.195312 431.191406 336.675781 C 431.191406 335.445312 430.390625 334.140625 428.804688 332.777344 C 427.210938 331.414062 425.039062 330.296875 422.273438 329.414062 C 419.507812 328.535156 416.472656 328.09375 413.160156 328.09375 C 408.160156 328.09375 403.757812 329.152344 399.957031 331.261719 Z M 399.949219 331.246094 "/><path style=" stroke:none;fill-rule:nonzero;fill:#ffffff;fill-opacity:1;" d="M 487.179688 386.558594 C 487.144531 385.652344 486.707031 384.804688 485.859375 384.023438 L 462.664062 362.191406 L 459.449219 362.191406 L 459.449219 384.117188 C 459.449219 385.421875 459.757812 386.425781 460.375 387.136719 C 460.992188 387.851562 461.816406 388.210938 462.855469 388.210938 L 462.855469 388.40625 L 448.621094 388.40625 L 448.621094 388.210938 C 449.722656 388.210938 450.566406 387.851562 451.15625 387.136719 C 451.738281 386.425781 452.039062 385.414062 452.039062 384.117188 L 452.039062 325.445312 C 452.039062 324.40625 451.746094 323.613281 451.15625 323.058594 C 450.566406 322.503906 449.722656 322.230469 448.621094 322.230469 L 448.621094 322.039062 L 472.503906 322.039062 C 478.746094 322.039062 483.613281 323.808594 487.128906 327.347656 C 490.640625 330.882812 492.390625 335.816406 492.390625 342.109375 C 492.390625 348.402344 490.667969 353.058594 487.222656 356.632812 C 483.78125 360.207031 479.328125 362.058594 473.871094 362.191406 L 492.585938 381.003906 C 493.359375 381.785156 494.046875 382.21875 494.628906 382.324219 C 495.210938 382.417969 495.957031 382.171875 496.871094 381.59375 L 497.066406 381.785156 L 486.246094 389.199219 L 486.152344 389.101562 C 486.863281 388.316406 487.207031 387.480469 487.171875 386.566406 Z M 481.722656 351.90625 C 483.765625 349.601562 484.792969 346.335938 484.792969 342.109375 C 484.792969 333.332031 480.507812 328.949219 471.925781 328.949219 L 459.449219 328.949219 L 459.449219 355.367188 L 472.019531 355.367188 C 476.441406 355.367188 479.671875 354.214844 481.722656 351.90625 Z M 481.722656 351.90625 "/><path style=" stroke:none;fill-rule:nonzero;fill:#ffffff;fill-opacity:1;" d="M 554.921875 325.691406 C 559.824219 328.648438 563.683594 332.742188 566.472656 337.972656 C 569.261719 343.199219 570.664062 349.097656 570.664062 355.667969 C 570.664062 362.234375 569.261719 367.789062 566.472656 372.921875 C 563.683594 378.054688 559.824219 382.050781 554.921875 384.910156 C 550.019531 387.773438 544.472656 389.199219 538.300781 389.199219 C 532.128906 389.199219 526.3125 387.773438 521.242188 384.910156 C 516.167969 382.050781 512.226562 378.054688 509.398438 372.921875 C 506.574219 367.789062 505.15625 362.039062 505.15625 355.667969 C 505.15625 349.292969 506.566406 343.210938 509.398438 337.972656 C 512.226562 332.742188 516.179688 328.648438 521.242188 325.691406 C 526.3125 322.734375 532 321.253906 538.300781 321.253906 C 544.605469 321.253906 550.011719 322.734375 554.921875 325.691406 Z M 550.976562 378.90625 C 554.746094 376.601562 557.703125 373.414062 559.84375 369.355469 C 561.992188 365.296875 563.058594 360.726562 563.058594 355.65625 C 563.058594 350.585938 561.984375 345.664062 559.84375 341.476562 C 557.703125 337.285156 554.738281 334 550.976562 331.632812 C 547.210938 329.265625 542.984375 328.078125 538.308594 328.078125 C 533.636719 328.078125 529.050781 329.265625 525.148438 331.632812 C 521.25 334.011719 518.210938 337.285156 516.039062 341.476562 C 513.863281 345.664062 512.773438 350.394531 512.773438 355.65625 C 512.773438 360.921875 513.855469 365.289062 516.039062 369.355469 C 518.210938 373.414062 521.25 376.601562 525.148438 378.90625 C 529.050781 381.214844 533.433594 382.367188 538.308594 382.367188 C 543.1875 382.367188 547.210938 381.214844 550.976562 378.90625 Z M 532.648438 314.914062 L 539.761719 302.730469 L 545.898438 304.878906 L 537.519531 317.0625 L 532.640625 314.914062 Z M 532.648438 314.914062 "/><path style=" stroke:none;fill-rule:nonzero;fill:#ffffff;fill-opacity:1;" d="M 612.144531 324.5625 C 615.355469 326.253906 617.847656 328.675781 619.601562 331.828125 C 621.351562 334.976562 622.234375 338.703125 622.234375 342.988281 C 622.234375 347.277344 621.351562 351.132812 619.601562 354.34375 C 617.847656 357.558594 615.355469 360.015625 612.144531 361.707031 C 608.929688 363.394531 605.074219 364.242188 600.59375 364.242188 L 590.257812 364.242188 L 590.257812 384.03125 C 590.257812 385.394531 590.644531 386.417969 591.429688 387.101562 C 592.203125 387.78125 593.277344 388.160156 594.644531 388.222656 L 594.644531 388.414062 L 579.441406 388.414062 L 579.441406 388.222656 C 580.539062 388.160156 581.386719 387.761719 581.976562 387.050781 C 582.554688 386.335938 582.855469 385.296875 582.855469 383.933594 L 582.855469 326.421875 C 582.855469 325.058594 582.566406 324 581.976562 323.253906 C 581.386719 322.503906 580.539062 322.132812 579.441406 322.132812 L 579.441406 322.039062 L 600.59375 322.039062 C 605.074219 322.039062 608.929688 322.882812 612.144531 324.574219 Z M 611.113281 353.613281 C 613.457031 351.078125 614.625 347.539062 614.625 342.988281 C 614.625 338.4375 613.457031 335.109375 611.113281 332.609375 C 608.773438 330.109375 605.390625 328.859375 600.972656 328.859375 L 590.25 328.859375 L 590.25 357.417969 L 600.972656 357.417969 C 605.390625 357.417969 608.773438 356.148438 611.113281 353.613281 Z M 611.113281 353.613281 "/><path style=" stroke:none;fill-rule:nonzero;fill:#ffffff;fill-opacity:1;" d="M 679.78125 325.691406 C 684.683594 328.648438 688.539062 332.742188 691.332031 337.972656 C 694.121094 343.199219 695.519531 349.097656 695.519531 355.667969 C 695.519531 362.234375 694.121094 367.789062 691.332031 372.921875 C 688.539062 378.054688 684.683594 382.050781 679.78125 384.910156 C 674.875 387.773438 669.332031 389.199219 663.160156 389.199219 C 656.988281 389.199219 651.167969 387.773438 646.097656 384.910156 C 641.027344 382.050781 637.085938 378.054688 634.257812 372.921875 C 631.433594 367.789062 630.015625 362.039062 630.015625 355.667969 C 630.015625 349.292969 631.421875 343.210938 634.257812 337.972656 C 637.085938 332.742188 641.035156 328.648438 646.097656 325.691406 C 651.167969 322.734375 656.855469 321.253906 663.160156 321.253906 C 669.460938 321.253906 674.867188 322.734375 679.78125 325.691406 Z M 675.835938 378.90625 C 679.605469 376.601562 682.5625 373.414062 684.703125 369.355469 C 686.847656 365.296875 687.914062 360.726562 687.914062 355.65625 C 687.914062 350.585938 686.839844 345.664062 684.703125 341.476562 C 682.5625 337.285156 679.59375 334 675.835938 331.632812 C 672.070312 329.265625 667.84375 328.078125 663.167969 328.078125 C 658.492188 328.078125 653.90625 329.265625 650.007812 331.632812 C 646.109375 334.011719 643.070312 337.285156 640.894531 341.476562 C 638.722656 345.664062 637.628906 350.394531 637.628906 355.65625 C 637.628906 360.921875 638.710938 365.289062 640.894531 369.355469 C 643.070312 373.414062 646.109375 376.601562 650.007812 378.90625 C 653.90625 381.214844 658.292969 382.367188 663.167969 382.367188 C 668.046875 382.367188 672.070312 381.214844 675.835938 378.90625 Z M 675.835938 378.90625 "/><path style=" stroke:none;fill-rule:nonzero;fill:#ffffff;fill-opacity:1;" d="M 737.488281 380.21875 C 738.101562 379.3125 738.410156 378.105469 738.410156 376.609375 L 738.605469 376.609375 L 738.605469 389.964844 L 738.410156 389.964844 C 738.410156 389.3125 738.148438 388.890625 737.628906 388.695312 C 737.109375 388.503906 735.972656 388.40625 734.21875 388.40625 L 703.609375 388.40625 L 703.609375 388.210938 C 704.648438 388.210938 705.476562 387.851562 706.09375 387.136719 C 706.710938 386.425781 707.019531 385.414062 707.019531 384.117188 L 707.019531 326.316406 C 707.019531 324.695312 706.808594 323.605469 706.382812 323.050781 C 705.960938 322.496094 705.265625 322.222656 704.289062 322.222656 L 704.289062 322.027344 L 717.644531 322.027344 L 717.644531 322.222656 C 716.472656 322.222656 715.644531 322.503906 715.160156 323.050781 C 714.675781 323.605469 714.429688 324.695312 714.429688 326.316406 L 714.429688 381.582031 L 734.21875 381.582031 C 735.777344 381.582031 736.871094 381.125 737.488281 380.21875 Z M 737.488281 380.21875 "/><g clip-rule="nonzero" clip-path="url(#869323900e)"><path style=" stroke:none;fill-rule:nonzero;fill:#ffffff;fill-opacity:1;" d="M 789.390625 389.972656 L 789.199219 389.972656 C 789.199219 389.320312 788.871094 388.898438 788.21875 388.707031 C 787.570312 388.511719 786.53125 388.414062 785.105469 388.414062 L 749.433594 388.414062 L 749.433594 388.222656 C 750.472656 388.222656 751.300781 387.851562 751.914062 387.101562 C 752.53125 386.355469 752.839844 385.332031 752.839844 384.03125 L 752.839844 326.722656 C 752.839844 325.292969 752.550781 324.183594 751.960938 323.410156 C 751.371094 322.628906 750.523438 322.238281 749.425781 322.238281 L 749.425781 322.046875 L 785.09375 322.046875 C 786.589844 322.046875 787.648438 321.886719 788.265625 321.5625 C 788.878906 321.234375 789.1875 320.585938 789.1875 319.617188 L 789.382812 319.617188 L 789.382812 332.1875 L 789.1875 332.1875 C 789.1875 331.148438 788.828125 330.339844 788.113281 329.75 C 787.402344 329.160156 786.390625 328.867188 785.09375 328.867188 L 760.242188 328.867188 L 760.242188 350.796875 L 778.078125 350.894531 C 779.441406 350.894531 780.480469 350.605469 781.195312 350.015625 C 781.910156 349.433594 782.269531 348.589844 782.269531 347.480469 L 782.460938 347.480469 L 782.460938 361.027344 L 782.269531 361.027344 C 782.269531 359.988281 781.910156 359.179688 781.195312 358.589844 C 780.480469 358 779.441406 357.707031 778.078125 357.707031 L 760.242188 357.613281 L 760.242188 381.59375 L 785.09375 381.59375 C 786.398438 381.59375 787.402344 381.222656 788.113281 380.472656 C 788.828125 379.726562 789.1875 378.667969 789.1875 377.304688 L 789.382812 377.304688 L 789.382812 389.972656 Z M 789.390625 389.972656 "/></g></g></svg>